<svg xmlns="http://www.w3.org/2000/svg" width="32" height="32" viewBox="0 0 64 64" role="img" aria-label="job favicon"><rect width="64" height="64" rx="14" fill="#0f172a"/><rect x="3" y="3" width="58" height="58" rx="12" fill="none" stroke="#35f27d" stroke-opacity=".38" stroke-width="2"/><circle cx="48" cy="14" r="18" fill="#35f27d" opacity=".08"/><path d="M18 24h28a6 6 0 0 1 6 6v18H12V30a6 6 0 0 1 6-6Z" fill="#35f27d" opacity=".18" stroke="#35f27d" stroke-width="3"/>
<path d="M25 24v-5a4 4 0 0 1 4-4h6a4 4 0 0 1 4 4v5" fill="none" stroke="#35f27d" stroke-width="3"/>
<path d="M12 36h18" stroke="#14b85c" stroke-width="4" stroke-linecap="round"/>
<circle cx="43" cy="39" r="8" fill="none" stroke="#35f27d" stroke-width="4"/>
<path d="m49 45 7 7" stroke="#35f27d" stroke-width="4" stroke-linecap="round"/></svg>
